<svg width="400" height="400" viewBox="0 0 400 400" fill="none" xmlns="http://www.w3.org/2000/svg">
<path d="M0 66.6667C0 29.8477 29.8477 0 66.6667 0H333.333C370.152 0 400 29.8477 400 66.6667V333.333C400 370.152 370.152 400 333.333 400H66.6667C29.8477 400 0 370.152 0 333.333V66.6667Z" fill="white"/>
<path d="M85.5636 68.9377C94.8147 51.5203 140.482 140.018 192.449 140.018C244.416 140.018 273.352 92.7635 281.421 99.9729C285.16 103.376 278.47 114.789 269.613 129.406L268.431 131.409C255.667 149.627 247.426 170.719 244.416 192.88C244.416 228.92 325.514 314.419 314.099 331.237C302.68 348.056 250.124 258.154 199.93 258.154C149.737 258.154 112.338 311.817 101.512 298.2C90.6857 284.585 157.413 247.943 157.413 205.895C157.413 163.847 76.1172 86.3587 85.5636 68.9377Z" fill="#070707"/>
</svg>
