<svg width="4160" height="500" viewBox="0 0 4160 500" fill="none" xmlns="http://www.w3.org/2000/svg">
<path d="M1.44241 4.25009C19.3548 -28.3682 106.404 137.471 205.866 137.472C305.325 137.472 360.566 48.9908 376.297 63.0645C383.219 69.2621 370.312 90.486 353.681 118.087L351.388 121.889C330.607 156.45 305.325 200.002 305.325 236.535C305.325 304.179 460.367 464.197 438.447 495.593C416.531 526.983 316.122 358.438 220.215 358.438C124.308 358.438 52.5709 458.97 31.3233 433.721C10.0811 408.469 138.125 339.674 138.125 260.863C138.125 182.051 -16.4558 36.8696 1.44241 4.25985V4.25009ZM1017.11 294.46C1017.11 311.396 1021.97 321.825 1031.67 325.745C1041.38 329.666 1067.16 331.622 1109.05 331.622C1150.92 331.622 1177.31 329.666 1186.91 325.745C1196.51 321.83 1201.3 311.402 1201.3 294.46V140.424H1234.68V294.46C1234.68 324.313 1228.57 342.629 1216.35 349.404C1202.82 357.024 1167.06 360.84 1109.05 360.84C1051.03 360.84 1015.91 357.239 1003.05 350.039C990.18 342.837 983.744 324.313 983.744 294.46V140.424H1017.11V294.46ZM2168.7 137.25C2215.15 137.25 2247.6 140.157 2266.04 145.983L2266.05 145.993C2284.47 151.813 2296.31 162.986 2301.54 179.498C2305.02 190.719 2306.77 214.01 2306.77 249.367C2306.77 284.725 2305.13 308.017 2301.86 318.603C2296.84 335.119 2285.06 346.287 2266.53 352.108C2248.23 357.854 2216.21 360.766 2170.5 360.84H2168.7C2122.25 360.84 2089.76 357.933 2071.22 352.108C2052.68 346.287 2040.9 335.223 2035.88 318.917C2032.44 307.859 2030.7 285.182 2030.65 250.884V249.362C2030.65 213.58 2032.28 190.394 2035.55 179.807C2040.56 163.291 2052.45 152.071 2071.22 146.141C2089.72 140.288 2121.62 137.323 2166.91 137.25H2168.7ZM2669.09 136.929C2719.04 136.929 2751.86 142.749 2767.56 154.395C2779.98 163.711 2786.2 181.922 2786.2 209.024H2753.5C2753.5 190.392 2748.59 178.641 2738.78 173.771C2729.09 168.964 2706.35 166.534 2670.55 166.466H2666.35C2636.56 166.492 2618.16 166.912 2611.18 167.736C2589.37 170.276 2578.46 180.331 2578.46 197.907C2578.46 212.729 2584.35 222.785 2596.14 228.079C2607.9 233.375 2632.22 236.021 2669.09 236.021C2721.22 236.021 2754.05 238.986 2767.56 244.911C2784.35 252.322 2792.76 270.108 2792.76 298.27C2792.76 324.947 2782.6 342.418 2762.33 350.675C2745.75 357.449 2712.17 360.835 2661.57 360.835C2606.82 360.835 2571.61 355.014 2555.89 343.368C2543.9 334.478 2537.91 315.101 2537.91 285.249H2571.27C2571.27 305.786 2575.96 318.65 2585.34 323.84C2594.72 329.025 2620.24 331.622 2661.89 331.622C2703.55 331.622 2729.13 329.717 2741.23 325.907C2753.33 322.097 2759.39 312.886 2759.39 298.275C2759.39 283.664 2754.87 274.244 2745.81 270.644C2736.76 267.043 2711.19 265.243 2669.09 265.243C2617.61 265.243 2583.05 259.208 2565.38 247.142C2551.86 238.036 2545.1 221.629 2545.1 197.913C2545.1 172.291 2553.22 155.729 2569.47 148.207C2585.71 140.692 2618.92 136.934 2669.08 136.934L2669.09 136.929ZM4036.33 136.929C4086.27 136.929 4119.1 142.749 4134.83 154.395C4147.23 163.711 4153.47 181.922 4153.47 209.024H4120.74C4120.74 190.392 4115.83 178.641 4106.01 173.771C4096.33 168.964 4073.6 166.534 4037.8 166.466H4033.59C4003.8 166.492 3985.41 166.912 3978.43 167.736C3956.62 170.276 3945.71 180.331 3945.71 197.907C3945.71 212.729 3951.58 222.785 3963.39 228.079C3975.14 233.375 3999.48 236.021 4036.33 236.021C4088.46 236.021 4121.3 238.986 4134.83 244.911C4151.62 252.322 4160 270.108 4160 298.27C4160 324.947 4149.86 342.418 4129.57 350.675C4112.99 357.449 4079.4 360.835 4028.82 360.835C3974.07 360.835 3938.84 355.014 3923.14 343.368C3911.15 334.478 3905.15 315.101 3905.15 285.249H3938.52C3938.52 305.786 3943.2 318.65 3952.57 323.84C3961.98 329.025 3987.47 331.622 4029.13 331.622C4070.79 331.622 4096.38 329.717 4108.48 325.907C4120.59 322.097 4126.62 312.886 4126.62 298.275C4126.62 283.664 4122.11 274.243 4113.06 270.644C4104.01 267.043 4078.44 265.243 4036.33 265.243C3984.85 265.243 3950.3 259.208 3932.63 247.142C3919.09 238.036 3912.33 221.629 3912.33 197.913C3912.33 172.291 3920.46 155.729 3936.73 148.207C3952.96 140.692 3986.16 136.934 4036.33 136.934V136.929ZM1858.56 140.424C1881.45 140.424 1899 145.719 1911.22 156.306C1923.44 166.891 1929.55 182.137 1929.55 202.038C1929.55 223.845 1921.15 237.821 1904.35 243.961C1913.96 247.137 1921.59 252.431 1927.26 259.842C1934.23 268.947 1937.73 280.379 1937.73 294.145C1937.73 315.531 1931.68 331.464 1919.57 341.945C1907.47 352.426 1889.75 357.67 1866.41 357.67H1686.8V140.429H1858.56V140.424ZM3749.38 140.429C3768.37 140.429 3782.96 146.727 3793.23 159.328C3803.46 171.924 3808.61 188.708 3808.61 209.669C3808.61 227.665 3805.66 241.112 3799.76 250.003C3795.63 256.352 3788.98 261.438 3779.8 265.248C3787.87 268.423 3794.19 272.554 3798.79 277.635C3805.32 284.836 3808.61 293.725 3808.61 304.312V357.67H3775.54V304.312C3775.54 297.111 3771.99 291.133 3764.92 286.367C3757.84 281.603 3749.28 279.219 3739.25 279.219H3581.87V357.664H3548.52V140.424H3749.38V140.429ZM3114.01 169.65H3013.87V357.669H2980.52V169.65H2880.07V140.428H3114.01V169.65ZM3468.98 357.669H3431.35L3404.86 309.396H3245.2L3219.03 357.669H3181.4L3299.19 140.428H3351.19L3468.98 357.669ZM903.246 169.647H803.137V357.664H769.767V169.647H669.327V140.424H903.246V169.647ZM1527.79 140.421C1546.76 140.421 1561.37 146.719 1571.62 159.319C1581.87 171.916 1587 188.699 1587 209.661C1587 227.656 1584.06 241.103 1578.16 249.994C1574.02 256.345 1567.37 261.43 1558.21 265.24C1566.29 268.415 1572.6 272.545 1577.19 277.626C1583.72 284.827 1587 293.716 1587 304.303V357.661H1553.95V304.303C1553.95 297.102 1550.41 291.124 1543.32 286.358C1536.23 281.594 1527.67 279.21 1517.64 279.21H1360.27V357.655H1326.9V140.416H1527.78L1527.79 140.421ZM2168.71 166.797C2117.01 166.797 2086.64 170.501 2077.6 177.912C2068.54 185.323 2064.03 209.145 2064.03 249.373C2064.03 289.6 2068.6 312.84 2077.77 320.356C2086.92 327.871 2117.24 331.628 2168.71 331.628C2220.18 331.628 2250.5 327.923 2259.66 320.513C2268.82 313.102 2273.4 289.385 2273.4 249.373C2273.4 209.36 2268.88 185.323 2259.82 177.912C2250.77 170.501 2220.39 166.797 2168.71 166.797ZM1720.16 328.441H1866.08C1878.73 328.441 1888.27 325.319 1894.7 319.073C1901.14 312.829 1904.35 304.626 1904.35 294.46C1904.35 284.294 1901.08 276.359 1894.55 270.003C1888 263.653 1878.51 260.478 1866.08 260.478H1720.16V328.441ZM3260.25 280.488H3390.45L3329.59 166.469H3321.11L3260.25 280.488ZM3581.89 249.682H3735.98C3748.17 249.682 3757.13 247.671 3762.8 243.647C3771.31 237.506 3775.54 226.181 3775.54 209.664C3775.54 193.148 3771.42 181.926 3763.15 175.996C3757.24 171.761 3748.21 169.647 3735.98 169.647H3581.89V249.682ZM1360.28 249.674H1514.37C1526.59 249.674 1535.53 247.663 1541.2 243.638C1549.71 237.498 1553.96 226.172 1553.96 209.655C1553.96 193.139 1549.81 181.918 1541.53 175.988C1535.65 171.753 1526.59 169.638 1514.38 169.638H1360.28V249.674ZM1720.16 231.26H1858.56C1872.73 231.26 1882.6 228.877 1888.17 224.111C1893.73 219.347 1896.5 211.988 1896.5 202.038C1896.5 192.087 1893.88 184.462 1888.65 179.171C1882.33 172.821 1872.29 169.647 1858.56 169.647H1720.16V231.26Z" fill="white"/>
</svg>
